<svg xmlns="http://www.w3.org/2000/svg" viewBox="0 0 24 24" aria-hidden="true">
  <g fill="#ffffff">
    <path d="M13.2 5.2c3.8.4 6.8 3.4 7.2 7.2.4 3.8-2 7.2-5.6 8.4-4.2 1.4-8.6-1-10-5.2C3.4 11.4 5.8 6.8 10 5.4c1-.3 2.1-.4 3.2-.2z"/>
    <path d="M5.8 8.2c1.8-2.8 4.6-4.2 7.6-3.8-2.2.6-3.8 2.2-4.8 4.4-.8 1.6-1.6 2.4-2.8 2.2z"/>
    <path d="M4.6 11.4c2.2-3.2 5.2-4.8 8.4-4.2-2.6 1-4.2 3-5 5.8-.4 1.2-1.4 1.8-2.4 1.6z"/>
    <path d="M5.4 14.6c1.8-2 4-3 6.4-2.6-1.8.8-2.8 2.2-3.2 4-.2.8-.8 1.2-1.4 1.1z"/>
    <circle cx="15.1" cy="9.3" r="2.1"/>
    <circle cx="15.5" cy="9.3" r=".85" fill="#223347"/>
    <path d="M16.8 12.1c1.5.5 2.3 1.8 1.8 3.3-.4 1.2-1.6 1.8-2.8 1.4-.3-1 .2-2.2 1-3.1.2-.4.6-.8 1-.6z"/>
  </g>
</svg>
